# xmcd CD database file
#
# Track frame offsets:
#	150
#	15755
#	32255
#	43505
#	63455
#	78230
#	94205
#	109505
#	131255
#	147742
#
# Disc length: 2169 seconds
#
# Revision: 0
# Processed by: cddbd v1.4PL0 Copyright (c) Steve Scherf et al.
# Submitted via: Feurio! 1.65 - http://www.feurio.com
#
DISCID=7208770a
DTITLE=Miki Honeycutt - Soul Deep
DYEAR=1900
DGENRE=blues
TTITLE0=Not By Man Alone
TTITLE1=Don´t Cry For Me
TTITLE2=Soul Deep
TTITLE3=Teardrops
TTITLE4=Here Comes The Night
TTITLE5=Come With Me
TTITLE6=Puttin´ The Best On The Outside
TTITLE7=Come On In This House
TTITLE8=Somebody Special
TTITLE9=Breakaway
EXTD=Zensor CD 1989,\r\nfeat. Duke Robillard, Ron Levy,\r\n Paul Murphy, Al 
EXTD=Kentfield, DaveScholl, Curtis Stone, 
EXTT0=
EXTT1=
EXTT2=
EXTT3=
EXTT4=
EXTT5=
EXTT6=
EXTT7=
EXTT8=
EXTT9=
PLAYORDER=
